<?xml version="1.0" encoding="UTF-8"?>
<svg id="Layer_2" xmlns="http://www.w3.org/2000/svg" version="1.1" viewBox="0 0 595.28 841.89">
  <!-- Generator: Adobe Illustrator 30.0.0, SVG Export Plug-In . SVG Version: 2.1.1 Build 123)  -->
  <defs>
    <style>
      .st0 {
        fill: #fff;
      }
    </style>
  </defs>
  <path class="st0" d="M34.74,161.03h525.8v519.82H34.74V161.03ZM43.8,170.1v501.69h507.67V170.1H43.8Z"/>
  <path class="st0" d="M497.08,436.05v12.09h-172.25v72.53h167.71c3.2,0,5.75,8.58,4.53,12.09h-167.71l-4.53,4.53v66.49l4.53,4.53h167.71v12.09h-184.33v-184.36h184.33Z"/>
  <path class="st0" d="M282.53,436.05v184.36h-12.09v-172.27h-71.01l-4.53,4.53v167.73c-3.51,1.22-12.09-1.33-12.09-4.53v-167.73h-72.52v167.73l-4.58,4.52-7.51-4.52v-179.82h184.33Z"/>
  <path class="st0" d="M110.28,309.12h160.16v-87.64c3.51-1.22,12.09,1.33,12.09,4.53v179.82H98.2v-12.09h172.25v-72.53H98.2v-95.2l7.51-4.52,4.58,4.52v83.11Z"/>
  <path class="st0" d="M324.83,221.47v172.27h160.16v-167.73l4.58-4.52,7.51,4.52v179.82h-184.33v-179.82c0-3.2,8.58-5.75,12.09-4.53Z"/>
  <path class="st0" d="M13.09,164.27v513.33h4V164.27h-4ZM578.18,164.27v513.33h4V164.27h-4ZM37.76,143.62h519.75v-4H37.76v4ZM37.76,698.27v4h519.75v-4H37.76Z"/>
</svg>